<svg width="24" height="24" viewBox="0 0 24 24" fill="none" xmlns="http://www.w3.org/2000/svg">
<path fill-rule="evenodd" clip-rule="evenodd" d="M11.3753 1.21913C11.7405 0.926956 12.2595 0.926956 12.6247 1.21913L22.6247 9.21913C22.8619 9.4089 23 9.69622 23 10V22C23 22.5523 22.5523 23 22 23H16C15.4477 23 15 22.5523 15 22V14H9V22C9 22.5523 8.55228 23 8 23H2C1.44772 23 1 22.5523 1 22V10C1 9.69622 1.13809 9.4089 1.3753 9.21913L11.3753 1.21913ZM3 10.4806V21H7V13C7 12.4477 7.44772 12 8 12H16C16.5523 12 17 12.4477 17 13V21H21V10.4806L12 3.28062L3 10.4806ZM12 16C12.5523 16 13 16.4477 13 17V22C13 22.5523 12.5523 23 12 23C11.4477 23 11 22.5523 11 22V17C11 16.4477 11.4477 16 12 16Z" fill="white"/>
</svg>
