<svg width="114" height="133" viewBox="0 0 114 133" fill="none" xmlns="http://www.w3.org/2000/svg">
<path d="M56.775 133C64.09 133 70.075 127.015 70.075 119.7H43.475C43.475 127.015 49.46 133 56.775 133ZM100 93.1V56.525C100 35.91 86.035 19.285 66.75 14.63V9.975C66.75 4.655 62.095 0 56.775 0C51.455 0 46.8 4.655 46.8 9.975V14.63C27.515 19.285 13.55 35.91 13.55 56.525V93.1L0.25 106.4V113.05H113.3V106.4L100 93.1ZM86.7 99.75H26.85V56.525C26.85 39.9 40.15 26.6 56.775 26.6C73.4 26.6 86.7 39.9 86.7 56.525V99.75Z" fill="white"/>
</svg>
