<svg width="20" height="22" viewBox="0 0 20 22" fill="none" xmlns="http://www.w3.org/2000/svg">
<path d="M5 5C5 2.23858 7.23858 0 10 0C12.7614 0 15 2.23858 15 5C15 7.76142 12.7614 10 10 10C7.23858 10 5 7.76142 5 5Z" fill="black" fill-opacity="0.6"/>
<path d="M10 11C4.47717 11 0 15.4772 0 21C0 21.5523 0.447715 22 1 22C1.55228 22 2 21.5523 2 21C2 16.5817 5.58173 13 10 13C14.4183 13 18 16.5817 18 21C18 21.5523 18.4477 22 19 22C19.5523 22 20 21.5523 20 21C20 15.4772 15.5228 11 10 11Z" fill="black" fill-opacity="0.6"/>
</svg>
