<svg width="20" height="22" viewBox="0 0 20 22" fill="none" xmlns="http://www.w3.org/2000/svg">
<path fill-rule="evenodd" clip-rule="evenodd" d="M10 2C8.34315 2 7 3.34315 7 5C7 6.65685 8.34315 8 10 8C11.6569 8 13 6.65685 13 5C13 3.34315 11.6569 2 10 2ZM5 5C5 2.23858 7.23858 0 10 0C12.7614 0 15 2.23858 15 5C15 7.76142 12.7614 10 10 10C7.23858 10 5 7.76142 5 5ZM0 21C0 15.4772 4.47717 11 10 11C15.5228 11 20 15.4772 20 21C20 21.5523 19.5523 22 19 22C18.4477 22 18 21.5523 18 21C18 16.5817 14.4183 13 10 13C5.58173 13 2 16.5817 2 21C2 21.5523 1.55228 22 1 22C0.447715 22 0 21.5523 0 21ZM6.5 18.5C6.5 17.9477 6.94772 17.5 7.5 17.5H12.5C13.0523 17.5 13.5 17.9477 13.5 18.5C13.5 19.0523 13.0523 19.5 12.5 19.5H7.5C6.94772 19.5 6.5 19.0523 6.5 18.5Z" fill="black" fill-opacity="0.7"/>
</svg>
