<svg width="24" height="24" viewBox="0 0 24 24" fill="none" xmlns="http://www.w3.org/2000/svg">
<path fill-rule="evenodd" clip-rule="evenodd" d="M1 2C1 1.44772 1.44772 1 2 1H11.5C12.0523 1 12.5 1.44772 12.5 2V13C12.5 13.5523 12.0523 14 11.5 14H2C1.44772 14 1 13.5523 1 13V2ZM3 3V12H10.5V3H3ZM14.5 2C14.5 1.44772 14.9477 1 15.5 1H22C22.5523 1 23 1.44772 23 2V5.99999C23 6.55227 22.5523 6.99999 22 6.99999H15.5C14.9477 6.99999 14.5 6.55227 14.5 5.99999V2ZM16.5 3V4.99999H21V3H16.5ZM14.5 8.99999C14.5 8.4477 14.9477 7.99999 15.5 7.99999H22C22.5523 7.99999 23 8.4477 23 8.99999V13C23 13.5523 22.5523 14 22 14H15.5C14.9477 14 14.5 13.5523 14.5 13V8.99999ZM16.5 9.99999V12H21V9.99999H16.5ZM1 17C1 16.4477 1.44772 16 2 16H22C22.5523 16 23 16.4477 23 17V21.5C23 22.0523 22.5523 22.5 22 22.5H2C1.44772 22.5 1 22.0523 1 21.5V17ZM3 18V20.5H21V18H3Z" fill="white"/>
</svg>
