<svg width="121" height="110" viewBox="0 0 121 110" fill="none" xmlns="http://www.w3.org/2000/svg">
<path d="M118.781 39.1577C117.398 37.7467 115.508 36.829 113.449 36.5685V36.5645L81.2947 32.5261L68.5702 4.88259C66.7122 0.836346 61.5983 -1.07433 57.1481 0.614918C55.0266 1.4203 53.3397 2.95372 52.4541 4.88259L39.7297 32.5261L7.57501 36.5645C2.78434 37.1708 -0.558728 41.1936 0.108113 45.5492C0.394698 47.421 1.40407 49.139 2.95599 50.3962L27.1823 70.0377L22.2045 100.859C21.6653 103.989 23.2463 107.107 26.2142 108.767C29.1403 110.468 32.9041 110.404 35.7586 108.606L60.5119 93.3008L85.2653 108.621C89.2595 111.086 94.6953 110.14 97.4064 106.509C98.6384 104.858 99.1429 102.847 98.8196 100.875L93.8421 70.0414L118.068 50.3999C121.68 47.4744 121.999 42.4409 118.781 39.1577ZM86.3499 65.6025C85.2661 66.4829 84.7418 67.7995 84.9542 69.1067L90.139 102.105L62.9532 85.2992C61.4876 84.3937 59.5623 84.3937 58.0967 85.2992L30.7509 102.002L36.0697 69.091C36.2763 67.7891 35.7522 66.4797 34.674 65.6027L8.74971 44.3583L43.35 40.0174C44.865 39.8275 46.1564 38.9236 46.746 37.6408L60.5636 7.85645C60.5793 7.87394 60.5909 7.89397 60.5983 7.91537L74.2733 37.6252C74.863 38.908 76.1546 39.8118 77.6693 40.0017L112.313 44.535L86.3499 65.6025Z" fill="white"/>
</svg>
