<svg width="24" height="24" viewBox="0 0 24 24" fill="none" xmlns="http://www.w3.org/2000/svg">
<path fill-rule="evenodd" clip-rule="evenodd" d="M8 1.5C8.55228 1.5 9 1.94772 9 2.5V3H15V2.5C15 1.94772 15.4477 1.5 16 1.5C16.5523 1.5 17 1.94772 17 2.5V3H20.5C21.6046 3 22.5 3.89544 22.5 5V20.5C22.5 21.6046 21.6046 22.5 20.5 22.5H3.5C2.39544 22.5 1.5 21.6046 1.5 20.5V5C1.5 3.89543 2.39543 3 3.5 3H7V2.5C7 1.94772 7.44772 1.5 8 1.5ZM7 5H3.5V8.5H20.5V5H17V6.5C17 7.05228 16.5523 7.5 16 7.5C15.4477 7.5 15 7.05228 15 6.5V5H9V6.5C9 7.05228 8.55228 7.5 8 7.5C7.44772 7.5 7 7.05228 7 6.5V5ZM20.5 10.5H3.5V20.5H20.5V10.5ZM17.7071 11.7929C18.0976 12.1834 18.0976 12.8166 17.7071 13.2071L11.7071 19.2071C11.3166 19.5976 10.6834 19.5976 10.2929 19.2071L7.29289 16.2071C6.90237 15.8166 6.90237 15.1834 7.29289 14.7929C7.68342 14.4024 8.31658 14.4024 8.70711 14.7929L11 17.0858L16.2929 11.7929C16.6834 11.4024 17.3166 11.4024 17.7071 11.7929Z" fill="black" fill-opacity="0.65"/>
</svg>
