<svg width="93" height="93" viewBox="0 0 93 93" fill="none" xmlns="http://www.w3.org/2000/svg">
<path d="M46.5 0C20.8599 0 0 20.8602 0 46.5003C0 72.1404 20.8599 93 46.5 93C72.1401 93 93 72.1404 93 46.5003C93 20.8602 72.1401 0 46.5 0ZM46.5 84.5455C25.5215 84.5455 8.45455 67.4785 8.45455 46.5003C8.45455 25.522 25.5215 8.45455 46.5 8.45455C67.4785 8.45455 84.5455 25.522 84.5455 46.5003C84.5455 67.4785 67.4783 84.5455 46.5 84.5455Z" fill="white"/>
<path d="M46.4994 19.7273C43.3921 19.7273 40.8642 22.2569 40.8642 25.3662C40.8642 28.4727 43.3921 31 46.4994 31C49.6068 31 52.1347 28.4727 52.1347 25.3662C52.1347 22.2569 49.6068 19.7273 46.4994 19.7273Z" fill="white"/>
<path d="M46.5 39.4545C44.1654 39.4545 42.2727 41.3472 42.2727 43.6818V69.0454C42.2727 71.38 44.1654 73.2727 46.5 73.2727C48.8346 73.2727 50.7273 71.38 50.7273 69.0454V43.6818C50.7273 41.3472 48.8346 39.4545 46.5 39.4545Z" fill="white"/>
</svg>
