<svg width="18" height="22" viewBox="0 0 18 22" fill="none" xmlns="http://www.w3.org/2000/svg">
<path fill-rule="evenodd" clip-rule="evenodd" d="M9 2C5.13398 2 2 5.13398 2 9C2 11.9132 3.7799 14.413 6.31488 15.4668H11.6851C14.2201 14.413 16 11.9132 16 9C16 5.13398 12.866 2 9 2ZM10.791 17.4668H7.20905L7.42014 20H10.5799L10.791 17.4668ZM5.17564 17.1491C2.11862 15.7121 0 12.6045 0 9C0 4.02942 4.02942 0 9 0C13.9706 0 18 4.02942 18 9C18 12.6045 15.8814 15.7121 12.8244 17.1491L12.5347 20.6246C12.4699 21.402 11.82 22 11.0399 22H6.96005C6.17978 22 5.53004 21.4019 5.46526 20.6246L5.17564 17.1491ZM6 6.5C6.55228 6.5 7 6.94772 7 7.5V8.88197L8.55279 8.10557C8.83431 7.96481 9.16569 7.96481 9.44721 8.10557L11 8.88197V7.5C11 6.94772 11.4477 6.5 12 6.5C12.5523 6.5 13 6.94772 13 7.5V10.5C13 10.8466 12.8205 11.1684 12.5257 11.3507C12.2309 11.5329 11.8628 11.5494 11.5528 11.3944L9 10.118L6.44721 11.3944C6.13723 11.5494 5.76909 11.5329 5.47427 11.3507C5.17945 11.1684 5 10.8466 5 10.5V7.5C5 6.94772 5.44772 6.5 6 6.5Z" fill="#FEFEFE"/>
</svg>
